<?xml version="1.0" encoding="utf-8"?><svg fill="none" height="100%" width="100%" viewBox="0 0 48 48" xmlns:xlink="http://www.w3.org/1999/xlink" xmlns="http://www.w3.org/2000/svg"><defs /><g transform="matrix(1,0,0,1,0,0)" id="N"><g id="Group 1" transform="matrix(1,0,0,1,31,30)"><path fill="#0a66c2" fill-opacity="1" d="M13,-3.5C13,-8.747,8.747,-13,3.5,-13C0.447,-13,-2.262,-11.554,-4,-9.316C-4,-9.316,-4,-13,-4,-13C-4,-13,-13,-13,-13,-13C-13,-13,-13,13,-13,13C-13,13,-4,13,-4,13C-4,13,-4,-2,-4,-2C-4,-4.209,-2.209,-6,0,-6C2.209,-6,4,-4.209,4,-2C4,-2,4,13,4,13C4,13,13,13,13,13C13,13,13,-3.5,13,-3.5Z" /></g></g><g id="i line"><g transform="translate(8.5,43)"><g transform="scale(1,1)"><animateTransform repeatCount="indefinite" type="scale" attributeName="transform" dur="1.555556s" begin="0s" calcMode="spline" values="1 1; 1 1; 1 0.4; 1 1.2; 1 0.8; 1 1; 1 1" keyTimes="0; 0.107143; 0.321429; 0.535715; 0.678572; 0.892857; 1" keySplines="0 0 1 1; 0.333 0 0.667 1; 0.333 0 0.667 1; 0.333 0 0.667 1; 0.333 0 0.667 1; 0 0 1 1" fill="freeze" /><g transform="translate(-8.5,-43)"><g id="Group 2" transform="matrix(1,0,0,1,8.5,30)"><path fill="#0a66c2" fill-opacity="1" d="M-4.5,-13C-4.5,-13,4.5,-13,4.5,-13C4.5,-13,4.5,13,4.5,13C4.5,13,-4.5,13,-4.5,13C-4.5,13,-4.5,-13,-4.5,-13Z" /></g></g></g></g></g><g id="i dot"><g><g transform="translate(8.5,0)"><g transform="translate(0,10.5)"><animateTransform repeatCount="indefinite" type="translate" attributeName="transform" dur="1.555556s" begin="0s" calcMode="spline" values="0 10.5; 0 10.5; 0 12.131; 0 15.599; 0 19.732; 0 22.938; 0 14.595; 0 8.5; 0 7.426; 0 5.625; 0 7.208; 0 9.046; 0 10.5; 0 10.5" keyTimes="0; 0.107143; 0.178572; 0.25; 0.321429; 0.392857; 0.464286; 0.535715; 0.607143; 0.678572; 0.75; 0.821429; 0.892857; 1" keySplines="0 0 1 1; 0 0 1 1; 0 0 1 1; 0 0 1 1; 0 0 1 1; 0 0 1 1; 0 0 1 1; 0 0 1 1; 0 0 1 1; 0 0 1 1; 0 0 1 1; 0 0 1 1; 0 0 1 1" fill="freeze" /><g transform="scale(1,1)"><animateTransform repeatCount="indefinite" type="scale" attributeName="transform" dur="1.555556s" begin="0s" calcMode="spline" values="1 1; 1 1; 0.67 1.51; 1.307 0.822; 0.831 1.22; 1 1; 1 1" keyTimes="0; 0.107143; 0.321429; 0.535715; 0.678572; 0.892857; 1" keySplines="0 0 1 1; 0.333 0 0.667 1; 0.333 0 0.667 1; 0.333 0 0.667 1; 0.333 0 0.667 1; 0 0 1 1" fill="freeze" /><g transform="translate(-8.5,-9.5)"><g id="Group 3" transform="matrix(1,0,0,1,8.5,9.5)"><path fill="#0a66c2" fill-opacity="1" d="M-0.079,4.5C-0.079,4.5,-0.027,4.5,-0.027,4.5C2.763,4.5,4.5,2.5,4.5,0C4.448,-2.555,2.763,-4.5,0.026,-4.5C-2.711,-4.5,-4.5,-2.555,-4.5,0C-4.5,2.5,-2.764,4.5,-0.079,4.5Z" /></g></g></g></g></g></g></g></svg>